<svg height="512" viewBox="0 0 54 60" width="512" xmlns="http://www.w3.org/2000/svg"><g id="040---Filing-Footage"><path id="Shape" d="m5 27c-.55228475 0-1 .4477153-1 1v2c0 .5522847.44771525 1 1 1s1-.4477153 1-1v-2c0-.5522847-.44771525-1-1-1z"/  fill="#FFFFFF"><path id="Shape" d="m5 33c-.55228475 0-1 .4477153-1 1v21c0 .5522847.44771525 1 1 1s1-.4477153 1-1v-21c0-.5522847-.44771525-1-1-1z"  fill="#FFFFFF"/><path id="Shape" d="m12 0h-4c-1.1045695 0-2 .8954305-2 2v20h-3c-1.65685425 0-3 1.3431458-3 3v32c0 1.6568542 1.34314575 3 3 3h48c1.6568542 0 3-1.3431458 3-3v-28c0-1.6568542-1.3431458-3-3-3h-5v-24c0-1.1045695-.8954305-2-2-2h-4c-1.1045695 0-2 .8954305-2 2v1h-24v-1c0-1.1045695-.8954305-2-2-2zm0 12h-4v-4h4zm-4 2h4v4h-4zm0-12h4v4h-4zm0 18h4v2h-4zm-5 38c-.55228475 0-1-.4477153-1-1v-32c0-.5522847.44771525-1 1-1h11.343c.7961596-.0022414 1.5601786.3138796 2.122.878l5.656 5.658c.9358645.9406269 2.2091214 1.4677898 3.536 1.464h21.343c.5522847 0 1 .4477153 1 1v24c0 .5522847-.4477153 1-1 1zm41-40h-4v-4h4zm-4 2h4v4h-4zm4-8h-4v-4h4zm-4 14h4v4h-4zm11 2c.5522847 0 1 .4477153 1 1v28c0 .5522847-.4477153 1-1 1h-1.184c.263-.739.184 1.3.184-25 0-1.6568542-1.3431458-3-3-3h-1v-2zm-11-26h4v4h-4zm-2 3v25.0000118l-12.343-.0000118c-.7961596.0022414-1.5601786-.3138796-2.122-.878l-5.656-5.658c-1.0231854-1.0217511-2.4358726-1.5549231-3.879-1.464v-17z" fill="#FFFFFF"/><path id="Shape" d="m24.045 23.7 7.984-4.989c.5998935-.3596496.9683178-1.0065583.9715891-1.7059933.0032712-.699435-.359086-1.3497616-.9555891-1.7150067l-8.016-5.007c-.6181708-.37090715-1.3881176-.38042974-2.0152725-.0249246-.627155.3555052-1.0144556 1.0210177-1.0137275 1.7419246v10c.0019065.7229484.3938193 1.3885922 1.0250574 1.7410076.631238.3524153 1.4035278.3367368 2.0199426-.0410076zm-1.045-11.7 7.984 5.008-7.984 4.992z" fill="#FFFFFF"/></g></svg>